name Walk6.mot
datacolumns 19
datarows 15
range 1.89500000 1.96500000
endheader

                time	   L_ground_force_vx	   L_ground_force_vy	   L_ground_force_vz	   L_ground_force_px	   L_ground_force_py	   L_ground_force_pz	   R_ground_force_vx	   R_ground_force_vy	   R_ground_force_vz	   R_ground_force_px	   R_ground_force_py	   R_ground_force_pz	   L_ground_torque_x	   L_ground_torque_y	   L_ground_torque_z	   R_ground_torque_x	   R_ground_torque_y	   R_ground_torque_z	
          1.89500000	         -0.00000000	         -0.00000001	          0.00000000	          0.00000000	          0.00000000	         -0.00000000	         -9.67664613	         24.21358539	          6.27771587	          0.76915627	          0.00000000	          0.02831499	          0.00000000	          0.00000000	          0.00000000	          0.00000000	          1.33599368	          0.00000000	
          1.90000000	         -0.00000000	         -0.00000001	          0.00000000	          0.00000000	          0.00000000	         -0.00000000	         -8.90981175	         21.69627010	          5.99058700	          0.75768449	          0.00000000	          0.02591173	          0.00000000	          0.00000000	          0.00000000	          0.00000000	          1.26614730	          0.00000000	
          1.90500000	         -0.00000000	         -0.00000000	          0.00000000	          0.00000000	          0.00000000	         -0.00000000	         -8.04542732	         19.54445091	          5.62848283	          0.73398207	          0.00000000	          0.02387851	          0.00000000	          0.00000000	          0.00000000	          0.00000000	          1.17183265	          0.00000000	
          1.91000000	         -0.00000000	         -0.00000000	          0.00000000	          0.00000000	          0.00000000	         -0.00000000	         -7.11830395	         17.54484739	          5.18654060	          0.69702798	          0.00000000	          0.02204550	          0.00000000	          0.00000000	          0.00000000	          0.00000000	          1.05840001	          0.00000000	
          1.91500000	         -0.00000000	          0.00000000	          0.00000000	          0.00000000	          0.00000000	         -0.00000000	         -6.15371224	         15.54669011	          4.66479851	          0.64626343	          0.00000000	          0.02022746	          0.00000000	          0.00000000	          0.00000000	          0.00000000	          0.93037091	          0.00000000	
          1.92000000	          0.00000000	          0.00000000	          0.00000000	          0.00000000	          0.00000000	         -0.00000000	         -5.17260659	         13.46634452	          4.07130072	          0.58196310	          0.00000000	          0.01825981	          0.00000000	         -0.00000000	          0.00000000	          0.00000000	          0.79241849	          0.00000000	
          1.92500000	          0.00000000	          0.00000000	         -0.00000000	          0.00000000	          0.00000000	         -0.00000000	         -4.19795469	         11.28791806	          3.42464157	          0.50573326	          0.00000000	          0.01602236	          0.00000000	         -0.00000000	          0.00000000	          0.00000000	          0.65001312	          0.00000000	
          1.93000000	          0.00000000	          0.00000000	         -0.00000000	          0.00000000	          0.00000000	         -0.00000000	         -3.26153289	          9.06951058	          2.75724506	          0.42112183	          0.00000000	          0.01350274	          0.00000000	         -0.00000000	          0.00000000	          0.00000000	          0.51011288	          0.00000000	
          1.93500000	          0.00000000	          0.00000000	         -0.00000000	         -0.00000000	          0.00000000	         -0.00000000	         -2.40546360	          6.93778252	          2.11331528	          0.33417128	          0.00000000	          0.01084608	          0.00000000	         -0.00000000	          0.00000000	          0.00000000	          0.38039409	          0.00000000	
          1.94000000	          0.00000000	          0.00000000	         -0.00000000	         -0.00000000	          0.00000000	          0.00000000	         -1.66625416	          5.02210041	          1.53325063	          0.25198704	          0.00000000	          0.00828482	          0.00000000	         -0.00000000	          0.00000000	          0.00000000	          0.26712544	          0.00000000	
          1.94500000	          0.00000000	          0.00000000	         -0.00000000	         -0.00000000	          0.00000000	          0.00000000	         -1.06043291	          3.39642316	          1.04000482	          0.17935475	          0.00000000	          0.00598710	          0.00000000	         -0.00000000	          0.00000000	          0.00000000	          0.17336206	          0.00000000	
          1.95000000	          0.00000000	          0.00000000	         -0.00000000	         -0.00000000	          0.00000000	          0.00000000	         -0.58806406	          2.08529183	          0.64144403	          0.11859228	          0.00000000	          0.00404012	          0.00000000	         -0.00000000	          0.00000000	          0.00000000	          0.09952257	          0.00000000	
          1.95500000	          0.00000000	          0.00000000	         -0.00000000	         -0.00000000	          0.00000000	          0.00000000	         -0.23863431	          1.07956734	          0.33512425	          0.07024727	          0.00000000	          0.00247203	          0.00000000	         -0.00000000	          0.00000000	          0.00000000	          0.04429971	          0.00000000	
          1.96000000	          0.00000000	          0.00000000	         -0.00000000	         -0.00000000	          0.00000000	          0.00000000	          0.00432131	          0.34923498	          0.11218303	          0.03368884	          0.00000000	          0.00127093	          0.00000000	         -0.00000000	          0.00000000	          0.00000000	          0.00538278	          0.00000000	
          1.96500000	          0.00000000	          0.00000000	         -0.00000000	         -0.00000000	          0.00000000	          0.00000000	          0.15978228	         -0.14673328	         -0.03965717	          0.00758025	          0.00000000	          0.00040018	          0.00000000	         -0.00000000	          0.00000000	          0.00000000	         -0.01999960	          0.00000000	
